<?xml version="1.0" standalone="no"?>
<!DOCTYPE svg PUBLIC "-//W3C//DTD SVG 20010904//EN"
 "http://www.w3.org/TR/2001/REC-SVG-20010904/DTD/svg10.dtd">
<svg version="1.0" xmlns="http://www.w3.org/2000/svg"
 width="482.000000pt" height="482.000000pt" viewBox="0 0 482.000000 482.000000"
 preserveAspectRatio="xMidYMid meet">
<metadata>
Created by potrace 1.14, written by Peter Selinger 2001-2017
</metadata>
<g transform="translate(0.000000,482.000000) scale(0.100000,-0.100000)"
fill="#000000" stroke="none">
<path d="M1730 3929 c-55 -22 -60 -39 -60 -226 0 -108 4 -181 11 -197 26 -57
18 -56 737 -56 456 0 669 3 691 11 54 19 61 47 61 239 0 189 -5 209 -62 229
-41 14 -1342 14 -1378 0z m1340 -234 l0 -135 -650 0 -650 0 0 135 0 135 650 0
650 0 0 -135z"/>
<path d="M2726 3764 c-18 -17 -21 -51 -6 -74 11 -18 165 -27 220 -13 30 8 35
14 38 43 5 51 -14 60 -134 60 -80 0 -106 -3 -118 -16z"/>
<path d="M1745 3382 c-69 -23 -75 -42 -75 -244 0 -186 4 -200 57 -227 15 -8
218 -11 693 -11 475 0 678 3 693 11 53 27 57 41 57 227 0 201 -7 225 -68 241
-41 12 -1322 14 -1357 3z m1325 -237 l0 -135 -650 0 -650 0 0 135 0 135 650 0
650 0 0 -135z"/>
<path d="M2739 3223 c-10 -2 -20 -14 -23 -26 -17 -65 3 -77 125 -77 120 0 139
8 139 56 0 28 -5 36 -26 44 -24 10 -179 11 -215 3z"/>
<path d="M1745 2832 c-32 -11 -51 -26 -64 -49 -14 -28 -15 -356 -1 -384 27
-49 21 -49 740 -49 719 0 713 0 740 49 6 12 10 94 10 195 l0 176 -29 32 -29
33 -674 2 c-370 1 -682 -2 -693 -5z m1325 -237 l0 -135 -650 0 -650 0 0 135 0
135 650 0 650 0 0 -135z"/>
<path d="M2716 2646 c-7 -27 1 -57 18 -68 6 -4 59 -8 117 -8 119 0 133 6 127
62 l-3 33 -126 3 -127 3 -6 -25z"/>
<path d="M3757 1942 c-22 -24 -21 -55 1 -75 24 -22 55 -21 75 1 21 23 21 41 1
70 -18 27 -55 29 -77 4z"/>
<path d="M1992 1608 l3 -333 38 -3 37 -3 0 153 c0 84 5 170 10 190 21 75 109
114 188 83 70 -29 76 -46 82 -245 l5 -174 38 -2 37 -3 0 177 c0 198 -9 234
-69 285 -76 64 -204 57 -271 -15 l-20 -22 0 122 0 122 -40 0 -40 0 2 -332z"/>
<path d="M2570 1604 l0 -335 38 3 c36 3 37 5 40 44 l3 40 34 -32 c45 -42 93
-57 165 -52 128 9 215 110 215 247 -1 80 -17 132 -58 177 -86 99 -234 106
-329 16 l-28 -26 0 127 0 127 -40 0 -40 0 0 -336z m338 74 c51 -31 75 -88 70
-169 -6 -110 -59 -164 -161 -164 -75 0 -120 27 -148 89 -77 170 85 336 239
244z"/>
<path d="M577 1868 c-3 -13 -4 -40 -3 -60 3 -37 2 -38 -31 -38 -31 0 -33 -2
-33 -35 0 -33 2 -35 33 -35 l33 0 2 -170 c1 -93 6 -180 12 -194 13 -35 57 -54
131 -58 l64 -3 3 31 c3 31 2 31 -47 36 -81 8 -81 7 -81 194 l0 163 63 3 c62 3
62 3 62 33 0 30 0 30 -62 33 l-63 3 0 59 0 60 -39 0 c-32 0 -40 -4 -44 -22z"/>
<path d="M1028 1767 c-114 -32 -172 -119 -170 -253 2 -146 97 -243 240 -244
95 0 170 40 208 112 21 40 18 48 -22 48 -30 0 -43 -7 -73 -42 -36 -40 -41 -42
-102 -45 -51 -3 -70 0 -96 16 -38 24 -60 56 -69 99 l-6 32 196 0 196 0 0 55
c0 64 -20 118 -58 158 -59 62 -157 88 -244 64z m139 -76 c46 -21 69 -51 79
-99 l7 -32 -157 0 c-90 0 -156 4 -156 9 0 21 22 67 43 90 48 51 114 63 184 32z"/>
<path d="M1572 1761 c-62 -21 -104 -59 -131 -115 -43 -91 -36 -193 20 -281 82
-129 307 -127 390 3 16 25 29 50 29 54 0 4 -20 8 -43 8 -37 0 -46 -4 -55 -25
-29 -64 -146 -87 -213 -42 -53 35 -71 79 -67 169 2 58 8 83 24 104 69 93 193
96 249 7 17 -28 26 -32 63 -33 40 0 43 2 37 23 -4 12 -19 38 -34 57 -60 76
-172 105 -269 71z"/>
<path d="M3337 1769 c-119 -29 -186 -115 -187 -238 0 -91 17 -139 70 -191 51
-51 100 -70 181 -70 61 0 140 32 176 71 62 68 83 210 44 294 -47 102 -174 162
-284 134z m98 -70 c109 -30 158 -159 103 -269 -32 -62 -85 -92 -156 -87 -92 7
-144 62 -150 162 -7 100 36 171 117 195 36 11 41 11 86 -1z"/>
<path d="M4084 1771 c-79 -20 -124 -71 -124 -141 0 -65 43 -102 159 -137 131
-40 160 -75 106 -128 -48 -49 -171 -26 -190 35 -9 28 -85 29 -85 1 0 -32 44
-85 90 -108 85 -43 224 -22 265 41 23 34 29 95 13 126 -20 37 -71 67 -162 95
-87 26 -116 47 -116 83 0 82 163 92 193 12 10 -26 16 -30 49 -30 33 0 38 3 38
24 0 31 -38 86 -75 107 -36 20 -118 31 -161 20z"/>
<path d="M3752 1523 l3 -248 38 -1 37 -1 0 248 0 249 -40 0 -40 0 2 -247z"/>
<path d="M1480 1090 c0 -5 7 -13 15 -17 11 -7 15 -35 17 -128 l3 -119 26 -7
c39 -10 75 0 104 28 31 32 35 108 7 143 -22 27 -65 29 -92 5 -20 -18 -20 -17
-20 43 l0 62 -30 0 c-16 0 -30 -4 -30 -10z m133 -115 c23 -23 30 -71 15 -102
-11 -23 -20 -28 -48 -28 l-35 0 -3 60 c-3 47 0 62 14 72 23 17 39 16 57 -2z"/>
<path d="M2200 1091 c0 -5 7 -11 15 -15 12 -4 15 -27 15 -121 0 -96 -3 -115
-15 -115 -8 0 -15 -4 -15 -10 0 -5 23 -10 50 -10 28 0 50 5 50 10 0 6 -7 10
-15 10 -12 0 -15 14 -15 65 0 53 3 66 19 75 25 13 27 13 45 -6 22 -22 23 -134
1 -134 -8 0 -15 -4 -15 -10 0 -5 20 -10 45 -10 44 0 60 12 30 24 -11 4 -15 22
-15 70 0 35 -3 71 -6 80 -7 19 -74 22 -92 4 -9 -9 -12 1 -12 45 l0 57 -35 0
c-19 0 -35 -4 -35 -9z"/>
<path d="M2760 1091 c0 -5 7 -11 15 -15 12 -4 15 -27 15 -121 0 -96 -3 -115
-15 -115 -8 0 -15 -4 -15 -10 0 -5 23 -10 50 -10 28 0 50 5 50 10 0 6 -7 10
-15 10 -12 0 -15 14 -15 65 0 54 3 66 20 75 14 8 26 8 40 0 17 -9 20 -21 20
-75 0 -51 -3 -65 -15 -65 -8 0 -15 -4 -15 -10 0 -5 20 -10 45 -10 44 0 60 12
30 24 -11 4 -15 22 -15 73 0 94 -16 112 -77 87 l-33 -13 0 55 0 54 -35 0 c-19
0 -35 -4 -35 -9z"/>
<path d="M3500 1090 c0 -6 7 -13 15 -16 8 -4 15 -19 15 -34 0 -25 -4 -29 -28
-28 -56 2 -102 -47 -102 -107 0 -28 16 -66 34 -77 17 -12 71 -9 83 3 9 9 16 7
29 -5 9 -10 23 -15 31 -12 8 3 17 6 19 6 2 0 4 5 4 10 0 6 -7 10 -15 10 -13 0
-15 21 -15 130 l0 130 -35 0 c-19 0 -35 -5 -35 -10z m18 -112 c7 -7 12 -36 12
-65 0 -47 -3 -55 -25 -65 -38 -17 -65 12 -65 72 0 50 13 70 45 70 12 0 26 -5
33 -12z"/>
<path d="M2088 1028 c-22 -29 -25 -37 -13 -42 11 -4 14 -22 13 -77 -2 -60 1
-73 17 -85 19 -14 49 -11 74 10 11 9 8 12 -20 16 l-34 5 0 65 c0 65 0 65 30
69 l30 4 -30 6 c-23 5 -31 13 -35 35 l-5 29 -27 -35z"/>
<path d="M1290 1006 c-24 -8 -36 -18 -38 -33 -2 -16 2 -23 12 -23 9 0 16 8 16
19 0 10 7 21 15 25 20 7 45 -20 45 -50 0 -19 -5 -24 -24 -24 -14 0 -37 -10
-52 -23 -52 -45 -3 -108 55 -70 17 11 26 13 29 5 4 -14 62 -16 62 -3 0 5 -7
11 -15 15 -11 4 -15 21 -16 58 -2 101 -23 126 -89 104z m50 -125 c0 -30 -28
-50 -50 -36 -16 10 -12 43 8 54 30 18 42 12 42 -18z"/>
<path d="M1798 1008 c-8 -7 -21 -22 -27 -33 -11 -18 -12 -18 -8 8 4 25 2 27
-29 27 -35 0 -46 -16 -19 -26 11 -5 15 -23 15 -75 0 -55 -3 -69 -15 -69 -8 0
-15 -4 -15 -10 0 -6 27 -10 60 -10 33 0 60 4 60 10 0 6 -11 10 -25 10 -24 0
-25 3 -25 54 0 61 19 91 52 80 16 -5 19 -2 16 17 -4 27 -18 34 -40 17z"/>
<path d="M1914 1004 c-79 -39 -68 -170 15 -189 65 -14 120 48 108 122 -11 66
-66 96 -123 67z m67 -30 c7 -9 13 -39 14 -66 0 -41 -4 -53 -22 -65 -20 -14
-24 -13 -48 11 -19 19 -25 35 -25 69 0 23 5 48 12 55 17 17 53 15 69 -4z"/>
<path d="M2701 1004 c-22 -16 -31 -51 -8 -37 6 4 21 8 32 8 23 0 32 30 12 38
-8 3 -24 -1 -36 -9z"/>
<path d="M3054 1010 c-12 -4 -31 -21 -44 -37 -17 -22 -21 -37 -17 -71 15 -132
177 -112 177 22 0 61 -63 108 -116 86z m61 -44 c23 -35 16 -105 -12 -123 -20
-14 -24 -13 -48 11 -27 27 -34 81 -15 117 15 27 56 24 75 -5z"/>
<path d="M3253 1005 c-39 -16 -55 -46 -55 -96 1 -48 19 -76 58 -89 60 -20 116
25 116 94 0 54 -12 77 -48 92 -39 16 -31 17 -71 -1z m75 -59 c15 -48 7 -92
-19 -106 -47 -26 -95 58 -69 120 11 27 17 31 44 28 26 -3 33 -9 44 -42z"/>
<path d="M2456 979 c-64 -76 -1 -189 89 -159 45 15 45 30 1 23 -26 -4 -38 0
-55 18 -11 12 -21 31 -21 41 0 15 9 18 55 18 51 0 55 2 55 23 0 69 -78 92
-124 36z m82 -16 c2 -14 -2 -23 -10 -23 -7 0 -23 -3 -35 -6 -18 -5 -23 -2 -23
13 0 45 62 59 68 16z"/>
<path d="M2605 1001 c-3 -5 4 -12 15 -16 17 -6 20 -15 20 -76 0 -53 -3 -69
-14 -69 -8 0 -18 -4 -21 -10 -4 -6 17 -10 54 -10 59 0 85 15 39 22 -21 3 -23
9 -24 58 -4 117 -1 110 -33 110 -17 0 -32 -4 -36 -9z"/>
</g>
</svg>
